<svg width="22" height="21" viewBox="0 0 22 21" fill="none" xmlns="http://www.w3.org/2000/svg">
<path fill-rule="evenodd" clip-rule="evenodd" d="M11 0C4.92545 0 0 4.81901 0 10.7678C0 15.5258 3.15268 19.5573 7.52321 20.9824C8.07321 21.0808 8.27455 20.748 8.27455 20.462C8.27455 20.2042 8.26473 19.5292 8.25982 18.6291C5.20045 19.2807 4.55223 17.1853 4.55223 17.1853C4.05134 15.943 3.32946 15.6102 3.32946 15.6102C2.33259 14.9399 3.40313 14.9539 3.40313 14.9539C4.50804 15.0289 5.0875 16.0649 5.0875 16.0649C6.06964 17.7103 7.66071 17.2368 8.28929 16.9603C8.3875 16.2665 8.67232 15.7883 8.98661 15.5211C6.54598 15.2492 3.97768 14.3258 3.97768 10.2005C3.97768 9.02391 4.40491 8.06293 5.10714 7.31289C4.9942 7.041 4.61607 5.94406 5.21518 4.46274C5.21518 4.46274 6.13839 4.17209 8.24018 5.56436C9.1192 5.32528 10.0571 5.20809 10.9951 5.2034C11.9281 5.20809 12.871 5.32528 13.75 5.56436C15.8518 4.17209 16.7701 4.46274 16.7701 4.46274C17.3692 5.94406 16.9911 7.041 16.8781 7.31289C17.5804 8.06761 18.0076 9.0286 18.0076 10.2005C18.0076 14.3351 15.4344 15.2446 12.9839 15.5118C13.3768 15.8446 13.7304 16.5009 13.7304 17.504C13.7304 18.9432 13.7156 20.1057 13.7156 20.4573C13.7156 20.7433 13.9121 21.0808 14.4719 20.973C18.8522 19.5526 22 15.5211 22 10.7678C22 4.81901 17.0746 0 11 0Z" fill="#171717"/>
</svg>
