<svg width="23" height="21" viewBox="0 0 23 21" fill="none" xmlns="http://www.w3.org/2000/svg">
<path d="M11.7514 13.7811C13.6075 13.7811 15.1122 12.3121 15.1122 10.4999C15.1122 8.68779 13.6075 7.21875 11.7514 7.21875C9.8953 7.21875 8.39062 8.68779 8.39062 10.4999C8.39062 12.3121 9.8953 13.7811 11.7514 13.7811Z" fill="#171717"/>
<path d="M18.4722 0H5.02905C3.95944 0 2.93364 0.414842 2.17732 1.15327C1.42099 1.89169 0.996094 2.89321 0.996094 3.9375V17.0625C0.996094 18.1068 1.42099 19.1083 2.17732 19.8467C2.93364 20.5852 3.95944 21 5.02905 21H18.4722C19.5418 21 20.5676 20.5852 21.324 19.8467C22.0803 19.1083 22.5052 18.1068 22.5052 17.0625V3.9375C22.5052 2.89321 22.0803 1.89169 21.324 1.15327C20.5676 0.414842 19.5418 0 18.4722 0ZM11.7506 16.4062C10.5542 16.4062 9.38458 16.0599 8.38976 15.4109C7.39493 14.7619 6.61956 13.8394 6.16169 12.7602C5.70383 11.681 5.58403 10.4934 5.81745 9.34775C6.05086 8.20205 6.62702 7.14965 7.47305 6.32365C8.31907 5.49765 9.39698 4.93513 10.5705 4.70724C11.7439 4.47934 12.9603 4.59631 14.0657 5.04334C15.171 5.49037 16.1158 6.24739 16.7806 7.21866C17.4453 8.18994 17.8001 9.33185 17.8001 10.5C17.8001 12.0664 17.1627 13.5687 16.0282 14.6763C14.8937 15.784 13.3551 16.4062 11.7506 16.4062V16.4062ZM17.8001 5.90625C17.5342 5.90625 17.2743 5.82927 17.0532 5.68505C16.8321 5.54083 16.6598 5.33585 16.5581 5.09602C16.4563 4.85619 16.4297 4.59229 16.4816 4.33769C16.5335 4.08309 16.6615 3.84923 16.8495 3.66567C17.0375 3.48212 17.277 3.35711 17.5378 3.30647C17.7986 3.25583 18.0689 3.28182 18.3145 3.38116C18.5602 3.4805 18.7701 3.64872 18.9178 3.86456C19.0656 4.0804 19.1444 4.33416 19.1444 4.59375C19.1444 4.94185 19.0028 5.27569 18.7507 5.52183C18.4985 5.76797 18.1566 5.90625 17.8001 5.90625Z" fill="#171717"/>
</svg>
