<svg width="27" height="21" viewBox="0 0 27 21" fill="none" xmlns="http://www.w3.org/2000/svg">
<path d="M8.63346 21C18.3861 21 23.7205 12.92 23.7205 5.913C23.7205 5.68353 23.7205 5.45507 23.705 5.22761C24.7427 4.47696 25.6385 3.54762 26.3504 2.48294C25.3827 2.91175 24.356 3.19291 23.3049 3.31719C24.4116 2.65472 25.2403 1.61195 25.636 0.384337C24.5952 1.00193 23.4564 1.43725 22.269 1.67141C21.2664 0.605277 19.8662 0 18.4028 0C15.4911 0 13.0953 2.39587 13.0953 5.30742C13.0953 5.71134 13.1415 6.114 13.2327 6.50742C8.97151 6.29385 4.99579 4.27828 2.30463 0.967403C0.905188 3.3765 1.62929 6.49854 3.94626 8.04568C3.10253 8.02069 2.27692 7.79304 1.53964 7.382V7.44918C1.54035 9.96368 3.32892 12.1492 5.79364 12.6471C5.01306 12.8599 4.19385 12.891 3.39944 12.738C4.09234 14.8927 6.09045 16.3779 8.35331 16.4204C6.47605 17.8957 4.15574 18.6971 1.7681 18.6947C1.34621 18.6939 0.924723 18.6683 0.505859 18.6182C2.9305 20.1741 5.7525 20.9997 8.63346 20.9959" fill="#171717"/>
</svg>
