<svg width="27" height="19" viewBox="0 0 27 19" fill="none" xmlns="http://www.w3.org/2000/svg">
<path d="M26.7265 4.10004C26.7265 4.10004 26.4632 2.23725 25.6539 1.41708C24.6268 0.342 23.4766 0.335667 22.9492 0.274708C19.171 9.4374e-08 13.5042 0 13.5042 0H13.4915C13.4915 0 7.82469 9.4374e-08 4.04737 0.274708C3.51993 0.335667 2.37053 0.342 1.34265 1.41708C0.534192 2.23725 0.27005 4.10004 0.27005 4.10004C0.27005 4.10004 0 6.28583 0 8.47163V10.5205C0 12.7078 0.27005 14.8928 0.27005 14.8928C0.27005 14.8928 0.533348 16.7548 1.34265 17.5734C2.37053 18.6485 3.71825 18.616 4.31911 18.7285C6.47866 18.9359 13.4983 19 13.4983 19C13.4983 19 19.171 18.9905 22.9492 18.719C23.4766 18.6556 24.6268 18.6493 25.6539 17.5742C26.4623 16.7556 26.7265 14.8936 26.7265 14.8936C26.7265 14.8936 26.9965 12.7078 26.9965 10.5213V8.47242C26.9965 6.28583 26.7265 4.10004 26.7265 4.10004Z" fill="#171717"/>
<path d="M10.1289 4.75V14.2497L18.5679 9.49987L10.1289 4.75Z" fill="white"/>
</svg>
